Patient4_TMGait_0pt6_02_right_42_EMG.mot
version=1
nRows=33
nColumns=33
inDegrees=no
endheader
time	1LAddLong	2LGlutMax	3LGlutMed	4LIliopsoas	5LSemiMemb	6LBicFemLong	7LRecFem	8LVastMed	9LVastLat	10LGasMed	11LTibAnt	12lTibPost	13LPeroneusLong	14LSol	15LExtDigLong	16LFlexDigLong	17RAddLong	18RGlutMax	19RGlutMed	20RIliopsoas	21RSemiMemb	22RBicFemLong	23RRecFem	24RVastMed	25RVastLat	26RGasMed	27RTibAnt	28RTibPost	29RPeroneusLong	30RSol	31RExtDigLong	32RFlexDigLong
51.96	0.006866	-0.005646	0.054474	0.009918	-0.018768	0.022888	0.070496	-0.002289	0.062561	-0.000305	0.19852	0.008698	-0.12772	0.037537	-0.26337	0.033875	0.023346	-0.074005	-0.17014	-0.21988	-0.056305	0.040588	-0.010376	-0.054779	0.016632	-0.018158	0.44525	0.00473	0.097961	0.020905	0.00473	-0.015106
51.961	0.007935	0.002899	0.05188	-0.002136	-0.070038	0.006561	0.10788	0.002899	0.085907	0.046997	0.001373	0.007324	-0.075378	0.081635	0.34515	0.27161	0.04776	-0.056305	-0.12604	-0.026703	-0.067749	0.026093	-0.016937	-0.083466	0.016632	-0.023041	0.354	0.00885	0.050964	0.11215	-0.003967	-0.012512
51.962	0.007172	-0.004578	0.034637	0.007324	-0.066833	0.032959	0.076447	0.003662	0.16373	0.063782	-0.27817	0.008087	-0.011292	0.12589	-0.26825	0.30014	0.030518	-0.052948	-0.081024	0.057983	-0.062714	0.013428	0.014343	-0.019226	0.001068	-0.024567	0.35049	-0.00412	-0.018616	0.19913	-0.001373	-0.010986
51.963	-0.000763	-0.002899	-0.007629	0.005798	0.056458	0.01236	-0.041656	0.00473	0.19562	0.070648	-0.21637	0.00473	0.043182	0.0354	0.14633	-0.31021	0.038605	-0.084991	-0.038147	0.22644	-0.036469	0.015869	0.027161	-0.04364	0.001221	-0.021057	0.12817	-0.002289	0.20355	0.096741	-0.002441	0.001526
51.964	0.001221	0.022125	0.006409	0.015564	0.11047	-0.071106	-0.029449	0.010223	0.25421	0.054779	-0.10651	0.011292	0.037231	-0.10071	-0.2066	0.071411	0.036011	-0.096283	-0.065002	0.28641	-0.01358	0.03891	0.009155	-0.094757	0.020905	-0.012665	-0.041046	0.004425	0.30624	0.030823	-0.008545	-0.007935
51.965	0.008545	0.014648	0.11749	0.017242	0.060425	-0.057831	0.039215	0.007477	0.23941	-0.002441	0.036926	0.00061	0.032349	-0.10712	0.11063	0.12848	0.016327	-0.090942	-0.17258	0.13519	-0.060272	-0.012207	0.036621	-0.10147	-0.010071	-0.015869	-0.04303	-0.005646	0.12741	-0.009003	-0.002289	-0.006866
51.966	-0.023804	0.005951	0.057373	0.013123	0.0383	-0.072937	0.060425	-0.007782	0.086975	-0.024261	0.074005	0.003052	-0.006409	-0.072479	-0.15076	0.042877	0.024719	-0.045319	-0.058136	0.15335	-0.14191	-0.009918	0.071716	-0.14267	-0.011444	-0.012817	0.042877	0.000153	-0.076752	-0.027466	-0.002289	0.001221
51.967	-0.059967	-0.043793	0.001221	0.008392	0.02243	-0.054321	0.045471	-0.002899	0.091248	0.012512	0.066681	0.006104	-0.085907	-0.029602	-0.0383	-0.017395	0.021667	-0.068665	-0.074158	0.11566	-0.13916	-0.021973	0.057068	-0.14343	-0.001678	-0.012207	0.24185	0.000763	-0.29694	-0.036926	-0.00351	-0.00412
51.968	0.016937	-0.05661	0.036621	0.012817	0.005341	-0.032043	0.11063	-0.00473	0.009766	0.03891	0.056305	0.006256	-0.078125	-0.14862	-0.26794	0.003052	-0.031891	-0.096741	-0.10056	-0.039063	-0.040588	-0.032654	0.043488	-0.10407	0.003357	-0.011749	0.37552	0.000305	-0.34576	-0.079498	-0.005798	-0.002441
51.969	0.021362	-0.043793	-0.010071	-0.005798	0.012054	-0.026093	0.10468	-0.007782	-0.018921	0.053101	0.037079	0.00473	-0.055389	-0.18982	-0.16068	-0.028076	-0.046234	-0.071716	-0.027466	-0.2034	0.22018	0.014801	0.021362	-0.087891	0.015564	-0.021515	0.20187	0.006409	-0.45929	-0.076752	-0.000916	-0.010071
51.97	-0.005341	-0.060577	-0.026703	0.006866	0.005493	0.050659	0.069275	-0.006866	-0.052643	0.054169	0.11383	-0.005035	0.041351	-0.13962	-0.15686	-0.019836	-0.021667	-0.065613	-0.042725	-0.10696	0.019989	0.026855	0.040436	-0.001678	0.007019	-0.016022	-0.10269	-0.004578	-0.32089	-0.014038	-0.000153	0.003357
51.971	0.002747	-0.039215	-0.009308	0.014496	0.014343	0.12772	0.098572	-0.003815	-0.07309	0.041809	0.1059	0.007477	0.029449	0.004272	-0.094147	-0.009766	0.005493	-0.076599	-0.091553	0.053711	-0.22598	0.10162	0.023041	-0.017853	0.01236	-0.012665	0.031128	-0.00412	-0.10574	-0.007935	-0.00473	-0.001373
51.972	-0.002899	-0.042572	-0.049286	0.006866	0.003357	0.1622	0.1059	-0.00061	-0.04303	0.029755	0.15823	0.007172	-0.00946	0.049133	-0.006866	-0.0177	0.01236	-0.042114	-0.26535	0.17502	-0.12802	0.15808	0.032654	-0.028534	0.008087	-0.020599	0.19928	0.004272	0.050201	-0.059357	-0.002289	-0.000305
51.973	0.004272	-0.004883	-0.043793	0.01358	-0.038452	0.1474	0.11902	0.003815	-0.03418	-0.015564	-0.11673	0.002594	0.076447	0.084991	-0.11292	-0.008087	-0.021057	-0.063782	-0.35324	0.23926	-0.02533	0.13733	0.051117	-0.036926	0.01297	-0.012054	0.3305	-0.001373	0.09903	-0.061798	0.000153	-0.002747
51.974	-0.000305	-0.040131	-0.083923	0.007629	-0.065002	0.019226	0.13641	0.002136	-0.001984	-0.000916	-0.030975	0.003204	0.050354	0.096436	0.10239	-0.005951	0.021362	-0.091858	-0.14648	0.059662	-0.009308	0.080261	0.078583	-0.035858	0.019684	-0.020905	0.31342	0.000153	0.28168	0.014496	-0.004425	-0.007477
51.975	0.005646	-0.024261	-0.14633	0.001373	-0.035095	-0.12085	0.1741	0.004272	-0.050964	0.023956	-0.12772	0.005646	0.038452	0.13275	0.11261	-0.014191	0.11414	-0.053864	-0.018768	-0.1294	-0.031433	0.052795	0.058746	-0.076294	0.015106	-0.016022	0.11551	-0.005646	-0.081787	0.049133	-0.006409	-0.006714
51.976	0.007172	0.011292	-0.11704	0.011902	0.016479	-0.27496	0.12039	0.004272	-0.088348	0.016327	-0.11093	0.006866	0.070953	0.11841	-0.001526	-0.00824	0.092468	0.000458	-0.056305	-0.11246	-0.033264	0.060425	0.076752	-0.051727	0.012054	-0.016632	-0.3801	-0.002289	-0.36987	0.008087	-0.004578	-0.007629
51.977	0.008087	0.011902	-0.034485	0.00824	0.002136	-0.20111	0.14526	0.005341	-0.051117	0.04364	0.046997	-0.01297	-0.007324	0.057678	0.18738	0.003052	0.008087	-0.035095	0.063324	-0.054321	-0.021362	0.043793	0.070343	-0.031586	0.009613	-0.016937	-0.33234	0.009613	-0.048828	-0.058441	-0.008392	-0.004578
51.978	0.00412	-0.012512	0.14847	-0.004272	0.004578	-0.003815	0.14679	-0.001678	-0.031433	0.028687	0.083923	0.016785	0.013123	-0.040436	0.58456	-0.010071	-0.051575	-0.062103	0.013123	-0.018158	-0.018311	0.021667	0.061493	-0.028229	0.007629	-0.014954	-0.39322	-0.003052	0.3067	-0.057983	-0.001678	-0.002289
51.979	-0.005035	0.011292	0.095215	-0.00061	0.055847	0.12451	0.17838	0.003357	0.005646	0.013733	0.12772	0.003204	0.010681	0.03006	0.92346	0.016174	-0.086517	-0.018311	0.23102	0.019684	-0.047607	-0.023193	0.068665	-0.058136	0.003204	-0.014038	-0.41122	-0.004578	0.36057	-0.024414	-0.00412	-0.000305
51.98	-0.004272	0.00061	0.046539	0.023346	0.047302	0.074005	0.20538	0.002441	-0.017548	0.016785	-0.08316	0.001373	-0.092163	0.084076	0.2449	0.009918	-0.050812	-0.028992	0.44022	0.007782	-0.15579	-0.054169	0.088959	-0.098724	0.002441	-0.016937	-0.16434	-0.000763	0.18463	0.001526	0	0.007629
51.981	-0.002289	0.014038	0.014648	0.014191	-0.042572	0.007324	0.20905	-0.002899	-0.040283	-0.008545	-0.18387	0.006104	-0.15198	0.074768	-0.29037	-0.035553	0.037384	-0.11185	0.14587	-0.039978	-0.33569	-0.11536	0.065002	-0.10605	0.012207	-0.023956	0.22003	-0.001526	-0.009766	0.021362	0.001526	0.010376
51.982	0.001831	-0.001831	0.003357	-0.007324	-0.067749	0.029144	0.19424	-0.000916	-0.025177	-0.041504	-0.17349	-0.000763	-0.070038	0.1944	-0.085144	-0.006866	0.036163	-0.11948	0.072174	-0.042572	-0.48752	-0.087585	0.083618	-0.13123	-0.00885	-0.042572	0.17242	0.001526	-0.14328	0.056763	0.000305	0.015717
51.983	0.010071	0.020294	0.007172	-0.001526	-0.054932	0.04303	0.1619	-0.006256	-0.028687	-0.036469	-0.20416	0.005493	0.000916	0.22583	-0.44952	-1.5965	0.013123	-0.084534	0.12268	-0.063324	-0.36865	0.010071	0.062714	-0.13626	-0.006714	-0.053253	0.098114	-0.005341	-0.060425	0.09964	0.002289	0.007172
51.984	0.007324	0.018463	-0.006409	-0.003967	-0.05249	0.023499	0.062561	0.006104	0.005035	-0.077209	-0.17792	0.016327	0.069733	0.27298	-0.39856	0.29007	-0.068359	-0.10025	0.13321	-0.12299	0.35584	0.097504	0.045471	-0.085297	0.005188	-0.067291	0.090332	0.003357	0.31006	0.057831	-0.001984	0.005493
51.985	0.015259	0.038147	0.001526	-0.00824	0.016022	-0.003967	0.13718	0.000305	0.055084	-0.061798	-0.060883	-0.002441	0.099182	0.16617	-0.54901	0.72952	-0.11047	-0.12238	0.15579	-0.051727	0.42007	0.081177	-0.005646	-0.018311	0.010529	-0.070648	0.092316	-0.003204	0.12772	0.01709	-0.003662	0.011597
51.986	0.014954	0.038757	-0.053101	0.019836	0.051575	0.027466	0.14938	-0.003357	0.023041	0.012665	0.097961	-0.003052	-0.00473	0.27832	-0.5629	-0.87463	-0.11734	-0.088348	0.24811	0.10559	0.17639	0.058899	0.013275	-0.017242	0.003815	-0.070953	0.073547	-0.01358	0.031128	0.010681	0.000153	0.010223
51.987	0.011292	0.088959	-0.1358	0.012665	0.039978	0.018463	0.15488	0.005188	0.007782	0.018768	0.090027	-0.000763	-0.083466	0.4245	-0.44647	-0.099335	-0.11047	-0.11719	0.28046	0.20233	0.075684	0.011597	0.001068	-0.022888	0.014038	-0.071106	0.079041	-0.006104	-0.021515	-0.050964	-0.001984	0.014496
51.988	0.016174	0.1004	-0.079346	0.015564	0.044098	0.004425	0.1474	0.000763	0.014954	0.015259	0.063782	-0.005035	-0.093079	0.32303	-0.21255	0.64972	-0.08728	-0.1329	0.26276	0.080414	0.092468	0.023346	0.004883	-0.047302	0.001068	-0.06897	0.081329	-0.008698	-0.18112	-0.054474	-0.001526	0.0177
51.989	0.020752	0.12039	0.012665	0.012665	0.077057	0.002289	0.18906	0.005798	0.020142	-0.011597	0.089111	-0.00351	-0.064087	0.091705	0.10544	-1.6562	-0.038147	-0.12665	0.11261	0.024567	0.072327	0.023651	-0.00473	-0.023804	-0.005951	-0.065613	0.056	-0.001678	-0.089417	-0.020142	-0.002747	0.016785
51.99	0.007782	0.16464	0.097198	0.016937	0.069122	-0.006104	0.15762	0.000305	0.00412	-0.023346	0.052643	-0.003815	-0.049286	-0.30899	0.18982	0.16205	-0.016937	-0.092773	-0.21957	-0.002747	0.10086	-0.000153	-0.013733	-0.03006	0.007477	-0.058899	0.050201	-0.008392	0.042419	-0.032196	0.001373	0.010223
51.991	0.006866	0.15015	0.080719	-0.000916	0.048676	-0.016937	0.10468	0.004272	0.017242	-0.000916	0.015411	0.003967	-0.049591	-0.52246	0.24368	1.1877	-0.009918	-0.06012	0.098724	-0.040741	0.1033	-0.076294	-0.02655	-0.027466	0.016174	-0.063171	0.052338	-0.007935	0.0354	-0.033112	-0.00061	0.017395
51.992	0.004272	0.11261	0.032959	0.005798	0.041351	0.001526	0.13947	-0.005798	0.010529	0.001526	0.023804	0.010529	0.005493	-0.29831	0.26169	0.11276	0.004425	-0.077057	-0.075989	-0.025177	0.086517	-0.11398	-0.015717	-0.033264	0.010376	-0.063782	0.039825	-0.005493	0.001068	-0.04303	-0.000458	0.015259
